# xmcd
#
# Track frame offsets:
#	150
#	31875
#	52240
#	67108
#	87191
#	128777
#	157799
#	170251
#	197632
#	217051
#	239637
#	255775
#	274218
#	293006
#	313313
#	327797
#
# Disc length: 4651
#
# Revision: 1
# Processed by: cddbd v1.5.1PL0 Copyright (c) Steve Scherf et al.
# Submitted via: FCDBAsst 2.0
# Normalized: r0:DSETVAR1
#
DISCID=ea122910
DTITLE=Various Artist - Ain't No Stoppin'
DYEAR=1900
DGENRE=
TTITLE0=McFadden An Whithead - Ain't No Stoppin' Us Now
TTITLE1=The Stylistics - Searchin'
TTITLE2=Tyrone Davis - Without You In My Life
TTITLE3=Lou Rawls - See You When You Git There
TTITLE4=Gene Chandler - When You're Number One
TTITLE5=Jerry Butler - I'm Just Thinking About Cooling Out
TTITLE6=Windy City Orchestra - Windy City Theme
TTITLE7=The Impressions - Come To My Party
TTITLE8=Willie Clayton - Walk Away From Love
TTITLE9=Billy Paul - Bring The Family Back
TTITLE10=The Trammps - Trammps Disco Theme
TTITLE11=Walter Jackson - Touching In The Dark
TTITLE12=Dexter Wansel - Disco Lights
TTITLE13=The Jones Girls - You Gonna Make Me Love Somebody Else
TTITLE14=Sidney Joe Qualls - I Don't Do This (To Every Girl I Meet)
TTITLE15=The Chi-Lites - You Don't Have To Go
EXTD=
EXTT0=
EXTT1=
EXTT2=
EXTT3=
EXTT4=
EXTT5=
EXTT6=
EXTT7=
EXTT8=
EXTT9=
EXTT10=
EXTT11=
EXTT12=
EXTT13=
EXTT14=
EXTT15=
PLAYORDER=
